<?xml version="1.0" standalone="no"?>
<!DOCTYPE svg PUBLIC "-//W3C//DTD SVG 1.1//EN" "http://www.w3.org/Graphics/SVG/1.1/DTD/svg11.dtd" >
<svg xmlns="http://www.w3.org/2000/svg">
<metadata>Generated by IcoMoon</metadata>
<defs>
<font id="icomoon" horiz-adv-x="1024">
<font-face units-per-em="1024" ascent="960" descent="-64" />
<missing-glyph horiz-adv-x="1024" />
<glyph unicode="&#x20;" horiz-adv-x="512" d="" />
<glyph unicode="&#xe900;" glyph-name="icon-cart" d="M498.893 135.475c37.326 0 67.584-30.258 67.584-67.584s-30.258-67.584-67.584-67.584v0c-37.326 0-67.584 30.258-67.584 67.584s30.258 67.584 67.584 67.584v0zM867.533 135.475c37.326 0 67.584-30.258 67.584-67.584s-30.258-67.584-67.584-67.584v0c-37.326 0-67.584 30.258-67.584 67.584s30.258 67.584 67.584 67.584v0zM-4.096 857.6v40.96h331.366v-40.96zM410.010 694.579v40.96h612.762v-40.96zM410.829 199.782v40.96h572.211v-40.96zM987.136 736.768l40.55-4.096-46.285-528.384-40.96 3.686zM283.853 895.283l40.55 7.373 124.928-692.634-40.141-7.373z" />
<glyph unicode="&#xe901;" d="M0 627.594l11.815 18.905 549.022-369.428-11.815-18.905z" />
<glyph unicode="&#xe902;" d="M1012.185 644.923l11.815-18.905-551.385-374.942-11.028 18.905z" />
<glyph unicode="&#xe903;" glyph-name="icon-close" d="M0 914.651l45.349 46.080 979.383-979.383-46.080-46.080zM978.651 960l46.080-45.349-979.383-979.383-46.080 46.080z" />
<glyph unicode="&#xe904;" glyph-name="icon-controls-group-1" d="M843.294 779.294v180.706h180.706v-180.706zM421.647 779.294v180.706h180.706v-180.706zM0 779.294v180.706h180.706v-180.706zM843.294 357.647v180.706h180.706v-180.706zM421.647 357.647v180.706h180.706v-180.706zM0 357.647v180.706h180.706v-180.706zM843.294-64v180.706h180.706v-180.706zM421.647-64v180.706h180.706v-180.706zM0-64v180.706h180.706v-180.706z" />
<glyph unicode="&#xe905;" glyph-name="icon-controls-group-2" d="M331.294 899.765v60.235h662.588v-60.235zM331.294 779.294v60.235h662.588v-60.235zM331.294 658.824v60.235h662.588v-60.235zM331.294 538.353v60.235h662.588v-60.235zM331.294 417.882v60.235h662.588v-60.235zM331.294 297.412v60.235h662.588v-60.235zM331.294 176.941v60.235h662.588v-60.235zM331.294 56.471v60.235h662.588v-60.235zM331.294-64v60.235h662.588v-60.235zM30.118 779.294v180.706h180.706v-180.706zM30.118 357.647v180.706h180.706v-180.706zM30.118-64v180.706h180.706v-180.706z" />
<glyph unicode="&#xe906;" glyph-name="icon-favorite" d="M493.301 272.139l24.487 35.617 361.962-316.55-24.042-35.617zM158.943-40.849l-23.597 35.617 366.414 309.871 23.597-35.617zM848.139 950.205h41.85v-972.355h-41.85zM133.565 962.226h40.070v-983.93h-40.070zM133.565 915.033v41.85h755.089v-41.85z" />
<glyph unicode="&#xe907;" glyph-name="icon-favorite-arrow" d="M0 627.594l11.815 18.905 549.022-369.428-11.815-18.905zM1012.185 644.923l11.815-18.905-551.385-374.942-11.028 18.905z" />
<glyph unicode="&#xe908;" glyph-name="icon-filter" d="M71.215-64.465v46.545h882.967v-46.545zM115.898 957.673h-46.545v-1022.604h46.545zM395.171 957.673h-46.545v-1022.604h46.545zM953.716 776.145h-46.545v-841.076h46.545zM674.444 819.433h-46.545v-884.364h46.545zM93.091 911.127v46.545h302.545v-46.545zM349.091 538.764v46.545h325.818v-46.545zM674.909 771.491v46.545h279.273v-46.545z" />
<glyph unicode="&#xe909;" glyph-name="icon-filter-arrow" d="M0 627.594l11.815 18.905 549.022-369.428-11.815-18.905zM1012.185 644.923l11.815-18.905-551.385-374.942-11.028 18.905z" />
<glyph unicode="&#xe90a;" d="M510.234 943.404c272.629 0 493.639-221.010 493.639-493.639s-221.010-493.639-493.639-493.639v0c-272.629 0-493.639 221.010-493.639 493.639s221.010 493.639 493.639 493.639v0z" />
<glyph unicode="&#xe90b;" d="M295.194 428.226v33.545h430.080v-33.545z" />
<glyph unicode="&#xe90c;" d="M523.652 663.746h-29.308v-431.139h29.308z" />
<glyph unicode="&#xe90d;" glyph-name="icon-mail" d="M24.576 789.333l20.821 27.307 477.867-372.053-20.48-26.965zM979.627 816.64l21.163-27.307-477.184-371.712-21.163 26.965z" />
<glyph unicode="&#xe90e;" glyph-name="icon-menu" d="M0 135.111v56.889h1024v-56.889zM0 419.556v56.889h1024v-56.889zM0 704v56.889h1024v-56.889z" />
<glyph unicode="&#xe90f;" glyph-name="icon-menu-arrow" d="M0 627.594l11.815 18.905 549.022-369.428-11.815-18.905zM1012.185 644.923l11.815-18.905-551.385-374.942-11.028 18.117z" />
<glyph unicode="&#xe910;" glyph-name="icon-mobile-catalog-menu" d="M332.406-64l-18.905 11.815 369.428 549.022 18.905-11.815zM315.077 948.185l18.905 11.815 374.942-551.385-18.905-11.028z" />
<glyph unicode="&#xe911;" glyph-name="icon-mobile-menu-arrow" d="M332.406-64l-18.905 11.815 369.428 549.022 18.905-11.815zM315.077 948.185l18.905 11.815 374.942-551.385-18.905-11.028z" />
<glyph unicode="&#xe912;" d="M46.080 805.973h930.56v-721.067h-930.56z" />
<glyph unicode="&#xe913;" d="M46.080 805.973h930.56v-721.067h-930.56z" />
<glyph unicode="&#xe914;" d="M0 824.32l21.76 28.587 501.76-392.533-21.76-28.587z" />
<glyph unicode="&#xe915;" d="M1002.667 852.907l21.333-28.587-500.48-392.533-22.187 28.16z" />
<glyph unicode="&#xe916;" glyph-name="icon-mobile-navigation" d="M0 627.594l11.815 18.117 549.022-368.64-11.815-18.905zM1012.185 644.923l11.815-18.905-551.385-374.942-11.028 18.117z" />
<glyph unicode="&#xe917;" glyph-name="icon-scroll-top" d="M1009.399 294.779l-10.809-16.498-502.139 328.059 10.809 16.308zM11.567 279.799l-10.999 16.498 503.846 333.179 10.809-16.687z" />
<glyph unicode="&#xe918;" glyph-name="icon-select-arrow" d="M0 627.594l11.815 18.905 549.022-369.428-11.815-18.905zM1012.185 644.923l11.815-18.905-551.385-374.942-11.028 18.905z" />
<glyph unicode="&#xe919;" glyph-name="icon-select-arrow-down" d="M0 627.594l11.815 18.905 549.022-369.428-11.815-18.905zM1012.185 644.923l11.815-18.905-551.385-374.942-11.028 18.905z" />
<glyph unicode="&#xe91a;" glyph-name="icon-slider-left" horiz-adv-x="360" d="M344.557 956.207l16.498-10.999-328.059-502.139-16.308 10.809zM359.538-41.813l-16.498-10.809-333.179 503.656 16.687 10.999z" />
<glyph unicode="&#xe91b;" glyph-name="icon-slider-right" horiz-adv-x="360" d="M28.065-56.794l-16.687 10.619 328.059 502.329 16.498-10.809zM12.895 941.037l16.498 10.809 333.179-503.656-16.687-10.999z" />
<glyph unicode="&#xe91d;" d="M833.829 417.28h-642.682l321.341 556.373z" />
<glyph unicode="&#xe91e;" d="M833.829 417.28h-642.682l321.341 556.373z" />
</font>
</defs>
</svg>
